HIERARCHY
ROOT Hips
{
  OFFSET 0.0000 94.0000 0.0000
  CHANNELS 6 Xposition Yposition Zposition Yrotation Xrotation Zrotation
  JOINT Spine
  {
    OFFSET 0.0000 12.9947 0.0000
    CHANNELS 3 Yrotation Xrotation Zrotation
    JOINT Spine1
    {
      OFFSET 0.0000 12.7099 0.0000
      CHANNELS 3 Yrotation Xrotation Zrotation
      JOINT Spine2
      {
        OFFSET 0.0000 12.7829 0.0000
        CHANNELS 3 Yrotation Xrotation Zrotation
        JOINT LeftShoulder
        {
          OFFSET 7.0401 10.4351 0.0000
          CHANNELS 3 Yrotation Xrotation Zrotation
          JOINT LeftArm
          {
            OFFSET 0.0000 13.4599 0.0000
            CHANNELS 3 Yrotation Xrotation Zrotation
            JOINT LeftForeArm
            {
              OFFSET -0.0001 26.1000 0.0000
              CHANNELS 3 Yrotation Xrotation Zrotation
              JOINT LeftHand
              {
                OFFSET 0.0000 28.9001 0.0000
                CHANNELS 3 Yrotation Xrotation Zrotation
                JOINT LeftHandIndex1
                {
                  OFFSET -2.5612 8.0739 0.1030
                  CHANNELS 3 Yrotation Xrotation Zrotation
                  JOINT LeftHandIndex2
                  {
                    OFFSET 0.0000 4.5805 0.0000
                    CHANNELS 3 Yrotation Xrotation Zrotation
                    JOINT LeftHandIndex3
                    {
                      OFFSET 0.0000 2.8180 0.0000
                      CHANNELS 3 Yrotation Xrotation Zrotation
                      End Site
                      {
                        OFFSET 0.0000 1.3566 0.0000
                      }
                    }
                  }
                }
                JOINT LeftHandMiddle1
                {
                  OFFSET -0.5450 8.1365 0.1030
                  CHANNELS 3 Yrotation Xrotation Zrotation
                  JOINT LeftHandMiddle2
                  {
                    OFFSET 0.0000 4.7024 0.0000
                    CHANNELS 3 Yrotation Xrotation Zrotation
                    JOINT LeftHandMiddle3
                    {
                      OFFSET 0.0000 3.1016 0.0000
                      CHANNELS 3 Yrotation Xrotation Zrotation
                      End Site
                      {
                        OFFSET 0.0000 1.4991 0.0000
                      }
                    }
                  }
                }
                JOINT LeftHandPinky1
                {
                  OFFSET 3.1368 7.0181 0.1031
                  CHANNELS 3 Yrotation Xrotation Zrotation
                  JOINT LeftHandPinky2
                  {
                    OFFSET 0.0000 3.5540 0.0000
                    CHANNELS 3 Yrotation Xrotation Zrotation
                    JOINT LeftHandPinky3
                    {
                      OFFSET 0.0000 2.2339 0.0000
                      CHANNELS 3 Yrotation Xrotation Zrotation
                      End Site
                      {
                        OFFSET 0.0000 1.1205 0.0000
                      }
                    }
                  }
                }
                JOINT LeftHandRing1
                {
                  OFFSET 1.4405 7.8067 0.1031
                  CHANNELS 3 Yrotation Xrotation Zrotation
                  JOINT LeftHandRing2
                  {
                    OFFSET 0.0000 4.3922 0.0000
                    CHANNELS 3 Yrotation Xrotation Zrotation
                    JOINT LeftHandRing3
                    {
                      OFFSET 0.0000 2.8327 0.0000
                      CHANNELS 3 Yrotation Xrotation Zrotation
                      End Site
                      {
                        OFFSET 0.0000 1.3500 0.0000
                      }
                    }
                  }
                }
                JOINT LeftHandThumb1
                {
                  OFFSET -2.7863 2.0790 0.0946
                  CHANNELS 3 Yrotation Xrotation Zrotation
                  JOINT LeftHandThumb2
                  {
                    OFFSET 0.0000 3.9619 0.0000
                    CHANNELS 3 Yrotation Xrotation Zrotation
                    JOINT LeftHandThumb3
                    {
                      OFFSET 0.0000 3.0071 0.0000
                      CHANNELS 3 Yrotation Xrotation Zrotation
                      End Site
                      {
                        OFFSET 0.0000 1.7295 0.0000
                      }
                    }
                  }
                }
              }
            }
          }
        }
        JOINT Neck
        {
          OFFSET 0.0000 18.2093 0.0000
          CHANNELS 3 Yrotation Xrotation Zrotation
          JOINT Head
          {
            OFFSET 0.0000 11.0335 0.0000
            CHANNELS 3 Yrotation Xrotation Zrotation
            End Site
            {
              OFFSET 0.0000 8.0220 0.0000
            }
          }
        }
        JOINT RightShoulder
        {
          OFFSET -7.0401 10.4351 0.0000
          CHANNELS 3 Yrotation Xrotation Zrotation
          JOINT RightArm
          {
            OFFSET 0.0000 13.4599 0.0000
            CHANNELS 3 Yrotation Xrotation Zrotation
            JOINT RightForeArm
            {
              OFFSET 0.0000 26.1001 0.0000
              CHANNELS 3 Yrotation Xrotation Zrotation
              JOINT RightHand
              {
                OFFSET -0.0001 28.9001 -0.0001
                CHANNELS 3 Yrotation Xrotation Zrotation
                JOINT RightHandIndex1
                {
                  OFFSET 2.5611 8.0740 0.1030
                  CHANNELS 3 Yrotation Xrotation Zrotation
                  JOINT RightHandIndex2
                  {
                    OFFSET 0.0000 4.5805 -0.0001
                    CHANNELS 3 Yrotation Xrotation Zrotation
                    JOINT RightHandIndex3
                    {
                      OFFSET 0.0000 2.8180 0.0000
                      CHANNELS 3 Yrotation Xrotation Zrotation
                      End Site
                      {
                        OFFSET 0.0000 1.3566 0.0000
                      }
                    }
                  }
                }
                JOINT RightHandMiddle1
                {
                  OFFSET 0.5450 8.1366 0.1030
                  CHANNELS 3 Yrotation Xrotation Zrotation
                  JOINT RightHandMiddle2
                  {
                    OFFSET 0.0000 4.7024 -0.0001
                    CHANNELS 3 Yrotation Xrotation Zrotation
                    JOINT RightHandMiddle3
                    {
                      OFFSET 0.0000 3.1016 0.0000
                      CHANNELS 3 Yrotation Xrotation Zrotation
                      End Site
                      {
                        OFFSET 0.0000 1.4991 0.0000
                      }
                    }
                  }
                }
                JOINT RightHandPinky1
                {
                  OFFSET -3.1368 7.0181 0.1030
                  CHANNELS 3 Yrotation Xrotation Zrotation
                  JOINT RightHandPinky2
                  {
                    OFFSET 0.0000 3.5541 -0.0001
                    CHANNELS 3 Yrotation Xrotation Zrotation
                    JOINT RightHandPinky3
                    {
                      OFFSET 0.0000 2.2340 0.0000
                      CHANNELS 3 Yrotation Xrotation Zrotation
                      End Site
                      {
                        OFFSET 0.0000 1.1205 0.0000
                      }
                    }
                  }
                }
                JOINT RightHandRing1
                {
                  OFFSET -1.4405 7.8068 0.1030
                  CHANNELS 3 Yrotation Xrotation Zrotation
                  JOINT RightHandRing2
                  {
                    OFFSET 0.0000 4.3923 -0.0001
                    CHANNELS 3 Yrotation Xrotation Zrotation
                    JOINT RightHandRing3
                    {
                      OFFSET 0.0000 2.8327 0.0000
                      CHANNELS 3 Yrotation Xrotation Zrotation
                      End Site
                      {
                        OFFSET 0.0000 1.3500 0.0000
                      }
                    }
                  }
                }
                JOINT RightHandThumb1
                {
                  OFFSET 2.7863 2.0791 0.0945
                  CHANNELS 3 Yrotation Xrotation Zrotation
                  JOINT RightHandThumb2
                  {
                    OFFSET 0.0000 3.9620 -0.0001
                    CHANNELS 3 Yrotation Xrotation Zrotation
                    JOINT RightHandThumb3
                    {
                      OFFSET 0.0000 3.0072 -0.0001
                      CHANNELS 3 Yrotation Xrotation Zrotation
                      End Site
                      {
                        OFFSET 0.0000 1.7295 0.0000
                      }
                    }
                  }
                }
              }
            }
          }
        }
      }
    }
  }
  JOINT LeftUpLeg
  {
    OFFSET 8.1000 0.0000 0.0000
    CHANNELS 3 Yrotation Xrotation Zrotation
    JOINT LeftLeg
    {
      OFFSET 0.0000 43.2000 0.0000
      CHANNELS 3 Yrotation Xrotation Zrotation
      JOINT LeftFoot
      {
        OFFSET 0.0000 43.3000 0.0000
        CHANNELS 3 Yrotation Xrotation Zrotation
        JOINT LeftToeBase
        {
          OFFSET 0.0000 14.5727 0.0000
          CHANNELS 3 Yrotation Xrotation Zrotation
          End Site
          {
            OFFSET 0.0000 3.5000 0.0000
          }
        }
      }
    }
  }
  JOINT RightUpLeg
  {
    OFFSET -8.1000 0.0000 0.0000
    CHANNELS 3 Yrotation Xrotation Zrotation
    JOINT RightLeg
    {
      OFFSET 0.0000 43.2000 0.0000
      CHANNELS 3 Yrotation Xrotation Zrotation
      JOINT RightFoot
      {
        OFFSET 0.0000 43.3000 0.0000
        CHANNELS 3 Yrotation Xrotation Zrotation
        JOINT RightToeBase
        {
          OFFSET 0.0000 14.5727 0.0000
          CHANNELS 3 Yrotation Xrotation Zrotation
          End Site
          {
            OFFSET 0.0000 3.5000 0.0000
          }
        }
      }
    }
  }
}
MOTION
Frames: 4
Frame Time: 0.033333
3.8516 109.0777 2.4304 14.9877 6.3176 1.6597 0.0000 0.0000 0.0000 0.0000 0.0000 0.0000 -22.1133 0.0000 0.0000 -270.0000 90.0000 0.0000 -76.9012 26.5591 64.6661 0.0000 0.0000 53.0907 0.0000 0.0000 0.0000 4.4556 17.5008 8.6883 0.0000 18.0000 0.0000 0.0000 17.9987 -0.0008 0.0000 17.9996 5.4001 0.0000 18.0001 0.0000 0.0001 18.0000 0.0001 -22.7691 18.0024 -13.2938 -0.0003 17.9994 0.0003 0.0000 18.0004 -0.0006 -11.4059 19.2849 -1.9366 0.0000 18.0000 0.0000 0.0000 17.9990 -0.0001 59.0813 -12.4334 28.1708 -0.3546 6.3513 -6.3900 -0.3550 6.3509 -6.3901 0.0000 0.0000 0.0000 -0.8710 1.5521 -0.2791 270.0000 90.0000 0.0000 27.5982 66.9579 -88.4515 0.0000 0.0000 -48.6708 0.0000 0.0000 0.0000 -4.4558 17.5007 -8.6881 0.0000 18.0000 0.0000 0.0000 17.9994 0.0002 -0.0001 17.9999 -5.3999 0.0000 18.0000 0.0000 0.0000 18.0000 0.0000 22.7693 18.0026 13.2939 0.0000 17.9989 0.0001 0.0000 17.9993 0.0002 11.4057 19.2849 1.9367 0.0000 18.0000 0.0000 0.0000 17.9991 0.0000 -59.0813 -12.4333 -28.1704 0.3548 6.3506 6.3897 0.3549 6.3508 6.3902 2.1717 -20.5327 -178.5663 0.0000 -35.4279 0.0826 -0.1744 64.6492 -0.1930 0.0000 24.6427 0.5887 -20.8051 -4.5786 179.0704 0.0000 -20.0451 -0.0827 0.1745 64.6492 0.1931 0.0000 24.6054 0.0000 
3.9067 117.3651 3.3418 14.5741 7.0988 2.1147 0.0000 0.0000 0.0000 0.0000 0.0000 0.0000 -22.0327 0.0000 0.0000 -270.0000 90.0000 0.0000 -80.0443 28.6478 68.2399 0.0000 0.0000 41.4209 0.0000 0.0000 0.0000 4.4556 17.5008 8.6883 0.0000 18.0000 0.0000 0.0000 17.9987 -0.0008 0.0000 17.9996 5.4001 0.0000 18.0001 0.0000 0.0001 18.0000 0.0001 -22.7691 18.0024 -13.2938 -0.0003 17.9994 0.0004 0.0000 18.0004 -0.0006 -11.4059 19.2849 -1.9366 0.0000 18.0000 0.0000 0.0000 17.9990 -0.0001 59.0813 -12.4334 28.1708 -0.3546 6.3513 -6.3900 -0.3550 6.3509 -6.3901 0.0000 0.0000 0.0000 -0.6206 1.4169 -0.5217 270.0000 90.0000 0.0000 24.4332 73.8615 -94.3711 0.0000 0.0000 -43.2759 0.0000 0.0000 0.0000 -4.4558 17.5007 -8.6881 0.0000 18.0000 -0.0001 0.0000 17.9994 0.0002 -0.0001 17.9999 -5.3999 0.0000 18.0000 0.0000 0.0000 18.0000 0.0000 22.7693 18.0026 13.2939 0.0000 17.9989 0.0001 0.0000 17.9993 0.0002 11.4057 19.2849 1.9367 0.0000 18.0000 0.0000 0.0000 17.9992 0.0000 -59.0813 -12.4333 -28.1704 0.3548 6.3506 6.3897 0.3549 6.3508 6.3902 -2.8352 -14.4206 -179.0556 0.0000 -23.8333 0.0826 -0.1744 64.6492 -0.1930 0.0000 24.9165 0.4756 -11.3839 -0.8398 179.8233 0.0000 -13.9147 -0.0827 0.1745 64.6491 0.1931 0.0000 24.7025 0.0867 
3.9840 124.0818 4.1737 13.5654 8.7230 2.5764 0.0000 0.0000 0.0000 0.0000 0.0000 0.0000 -21.7193 0.0000 0.0000 -270.0000 90.0000 0.0000 -83.4326 32.1571 70.8082 0.0000 0.0000 31.2040 0.0000 0.0000 0.0000 4.4556 17.5008 8.6883 0.0000 18.0000 0.0000 0.0000 17.9987 -0.0008 0.0000 17.9996 5.4001 0.0000 18.0001 0.0000 0.0001 18.0000 0.0001 -22.7691 18.0024 -13.2938 -0.0003 17.9994 0.0004 -0.0001 18.0004 -0.0006 -11.4059 19.2849 -1.9366 0.0000 18.0000 0.0000 0.0000 17.9990 -0.0001 59.0813 -12.4334 28.1708 -0.3546 6.3513 -6.3900 -0.3550 6.3509 -6.3901 0.0000 0.0000 0.0000 -0.0028 0.6034 -0.6127 270.0000 90.0000 0.0000 1.8856 83.6161 -119.9633 0.0000 0.0000 -38.8605 0.0000 0.0000 0.0000 -4.4558 17.5007 -8.6881 0.0000 18.0000 -0.0001 0.0000 17.9994 0.0002 -0.0001 17.9999 -5.3999 0.0000 18.0000 0.0000 0.0000 18.0000 0.0000 22.7693 18.0026 13.2939 0.0000 17.9989 0.0001 0.0000 17.9992 0.0002 11.4057 19.2849 1.9367 0.0000 18.0000 0.0000 0.0000 17.9992 0.0000 -59.0813 -12.4333 -28.1704 0.3548 6.3506 6.3897 0.3549 6.3508 6.3902 -4.3927 -12.0873 -179.5358 0.0000 -16.8743 0.0826 -0.1744 64.6493 -0.1930 0.0000 25.0569 0.4108 -6.5333 -0.9633 -179.6411 0.0000 -11.8990 -0.0827 0.1745 64.6493 0.1931 0.0000 24.7327 0.3395 
4.1217 128.8545 4.9330 12.5452 10.7714 2.7818 0.0000 0.0000 0.0000 0.0000 0.0000 0.0000 -21.1698 0.0000 0.0000 -270.0000 90.0000 0.0000 -82.2285 21.3970 72.6732 -1.2862 -6.4882 21.9911 0.0000 0.0000 0.0000 4.4556 17.5008 8.6883 0.0000 18.0000 0.0000 0.0000 17.9987 -0.0008 0.0000 17.9996 5.4001 0.0000 18.0001 0.0000 0.0001 18.0000 0.0001 -22.7691 18.0024 -13.2938 -0.0003 17.9994 0.0004 -0.0001 18.0004 -0.0006 -11.4059 19.2849 -1.9366 0.0000 18.0000 0.0000 0.0000 17.9990 -0.0001 59.0813 -12.4334 28.1708 -0.3546 6.3513 -6.3900 -0.3550 6.3509 -6.3901 0.0000 0.0000 0.0000 0.4126 -0.5216 -0.4163 270.0000 90.0000 0.0000 -122.6222 82.5682 112.7952 0.0000 0.0000 -36.1972 0.0000 0.0000 0.0000 -4.4558 17.5007 -8.6881 0.0000 18.0000 -0.0001 0.0000 17.9994 0.0002 0.0000 17.9999 -5.3999 0.0000 18.0000 0.0000 0.0000 18.0000 0.0000 22.7693 18.0026 13.2939 0.0000 17.9989 0.0001 -0.0001 17.9992 0.0002 11.4057 19.2849 1.9367 0.0000 18.0000 0.0000 0.0000 17.9992 0.0000 -59.0813 -12.4333 -28.1704 0.3548 6.3506 6.3897 0.3549 6.3508 6.3902 -2.5967 -12.9181 -179.8683 0.0000 -14.0946 0.0826 -0.1744 64.6492 -0.1930 0.0000 25.1209 0.4157 -4.0862 -3.2744 -179.0785 0.0000 -11.5131 -0.0827 0.1746 64.6491 0.1932 0.0000 24.7694 0.5136 
